<svg width="40" height="40" viewBox="0 0 40 40" fill="none" xmlns="http://www.w3.org/2000/svg">
<path d="M11.9495 36.625C11.1221 36.625 10.4167 36.3304 9.83333 35.7412C9.25 35.1519 8.95833 34.4436 8.95833 33.6162C8.95833 32.7887 9.25294 32.0833 9.84217 31.5C10.4314 30.9167 11.1397 30.625 11.9672 30.625C12.7946 30.625 13.5 30.9196 14.0833 31.5088C14.6667 32.0981 14.9583 32.8064 14.9583 33.6338C14.9583 34.4613 14.6637 35.1667 14.0745 35.75C13.4852 36.3333 12.7769 36.625 11.9495 36.625ZM28.6162 36.625C27.7887 36.625 27.0833 36.3304 26.5 35.7412C25.9167 35.1519 25.625 34.4436 25.625 33.6162C25.625 32.7887 25.9196 32.0833 26.5088 31.5C27.0981 30.9167 27.8064 30.625 28.6338 30.625C29.4613 30.625 30.1667 30.9196 30.75 31.5088C31.3333 32.0981 31.625 32.8064 31.625 33.6338C31.625 34.4613 31.3304 35.1667 30.7412 35.75C30.1519 36.3333 29.4436 36.625 28.6162 36.625ZM9.79167 9.12501L14.375 18.625H26.375L31.5833 9.12501H9.79167ZM8.54167 6.62501H33.0864C33.7243 6.62501 34.2097 6.91668 34.5425 7.50001C34.8753 8.08334 34.875 8.66668 34.5417 9.25001L28.9167 19.375C28.6111 19.9028 28.2145 20.3264 27.7267 20.6458C27.2389 20.9653 26.705 21.125 26.125 21.125H13.5L11.1667 25.4583H31.625V27.9583H11.5417C10.375 27.9583 9.53472 27.5695 9.02083 26.7917C8.50694 26.0139 8.51389 25.1389 9.04167 24.1667L11.7083 19.25L5.375 5.83334H2.125V3.33334H7L8.54167 6.62501Z" fill="white"/>
</svg>
